<?xml version="1.0" encoding="UTF-8" standalone="no"?>
<svg
   xmlns:dc="http://purl.org/dc/elements/1.1/"
   xmlns:cc="http://creativecommons.org/ns#"
   xmlns:rdf="http://www.w3.org/1999/02/22-rdf-syntax-ns#"
   xmlns:svg="http://www.w3.org/2000/svg"
   xmlns="http://www.w3.org/2000/svg"
   xmlns:sodipodi="http://sodipodi.sourceforge.net/DTD/sodipodi-0.dtd"
   xmlns:inkscape="http://www.inkscape.org/namespaces/inkscape"
   version="1.1"
   x="0px"
   y="0px"
   viewBox="0 0 1024 1024"
   enable-background="new 0 0 100 100"
   xml:space="preserve"
   id="svg3773"
   sodipodi:docname="ios-icon.svg"
   width="1024"
   height="1024"
   inkscape:version="0.92.2 5c3e80d, 2017-08-06"><metadata
     id="metadata3779"><rdf:RDF><cc:Work
         rdf:about=""><dc:format>image/svg+xml</dc:format><dc:type
           rdf:resource="http://purl.org/dc/dcmitype/StillImage" /><dc:title></dc:title></cc:Work></rdf:RDF></metadata><defs
     id="defs3777" /><sodipodi:namedview
     pagecolor="#ffffff"
     bordercolor="#666666"
     borderopacity="1"
     objecttolerance="10"
     gridtolerance="10"
     guidetolerance="10"
     inkscape:pageopacity="0"
     inkscape:pageshadow="2"
     inkscape:window-width="1609"
     inkscape:window-height="1002"
     id="namedview3775"
     showgrid="false"
     inkscape:zoom="0.56002857"
     inkscape:cx="488.03446"
     inkscape:cy="445.751"
     inkscape:window-x="0"
     inkscape:window-y="0"
     inkscape:window-maximized="0"
     inkscape:current-layer="svg3773" /><rect
     id="rect3789"
     width="1026.7333"
     height="1028.5189"
     x="-4.3937721e-06"
     y="2.6235461"
     style="fill-opacity:1;fill:#2f6888" /><g
     id="g3767"
     transform="matrix(9.6139591,0,0,9.6139591,50.001812,32.469625)"
     style="fill:#ffffff;fill-opacity:1"><path
       d="M 77.595,47.115 C 76.6,46.358 75.604,45.6 74.612,44.84 c -0.554,-0.429 -1.111,-0.848 -1.665,-1.282 -0.585,-0.458 -1.16,-1.02 -1.81,-0.395 -0.405,0.387 -0.715,0.852 -1.043,1.294 -0.594,0.799 -1.191,1.598 -1.758,2.418 -0.39,0.551 -0.892,1.139 -1.128,1.777 -0.261,0.717 -1.138,1.73 -1.982,2.319 l 7.791,5.756 c 0.018,-0.15 0.04,-0.3 0.062,-0.428 0.148,-1.062 1.273,-2.887 1.823,-3.491 0.542,-0.611 1.652,-1.307 2.211,-1.567 0.559,-0.251 1.341,-1.363 1.569,-2.041 0.232,-0.672 0.044,-1.191 -0.46,-1.603 -0.199,-0.16 -0.416,-0.32 -0.627,-0.482 z"
       id="path3759"
       inkscape:connector-curvature="0"
       style="fill:#ffffff;fill-opacity:1" /><path
       d="m 74.526,58.923 -11.48,-8.474 -0.79,0.27 -1.719,2.362 c -0.383,0.021 -0.771,0.193 -1.128,0.676 -0.42,0.572 -8.053,10.797 -8.628,11.834 -0.277,0.499 -0.296,0.852 -0.185,1.164 l -2.03,2.792 0.592,1.437 10.189,7.532 1.495,0.108 1.935,-2.677 c 0.483,0.074 0.909,-0.07 1.168,-0.49 0.406,-0.682 7.756,-10.312 8.531,-11.448 0.55,-0.804 0.59,-1.461 0.422,-1.979 l 1.691,-2.331 z"
       id="path3761"
       inkscape:connector-curvature="0"
       style="fill:#ffffff;fill-opacity:1" /><path
       d="M 84.614,32.792 C 83.693,27.379 80.259,21.205 74.139,16.117 67.922,10.939 58.207,6.415 50.233,5.254 42.255,4.101 28.906,6.232 24.268,25.077 19.627,43.926 15.053,68.89 15.133,75.534 c 0.083,6.646 3.125,13.821 11.513,17.782 0.179,0.083 0.375,0.148 0.554,0.225 1.466,0.591 2.955,1.096 4.521,1.315 1.427,0.191 2.877,0.175 4.313,0.045 1.288,-0.114 2.558,-0.352 3.795,-0.733 1.06,-0.332 2.116,-0.712 3.129,-1.155 1.289,-0.567 2.591,-1.294 3.752,-2.075 0.358,-0.236 0.7,-0.494 1.023,-0.772 0.157,-0.123 0.306,-0.26 0.447,-0.403 0.095,-0.103 0.234,-0.276 0.188,-0.434 -0.071,-0.2 -0.535,-0.265 -0.714,-0.35 -0.305,-0.143 -0.636,-0.331 -1.001,-0.579 -0.045,-0.021 -4.447,-2.973 -4.973,-3.77 -0.329,-0.492 -0.463,-1.069 -0.385,-1.652 0.038,-0.288 0.123,-0.561 0.234,-0.833 0.049,-0.136 0.425,-0.896 -0.06,-0.586 -0.189,0.12 -0.376,0.241 -0.556,0.364 -0.729,0.462 -1.42,0.993 -2.161,1.45 -1.413,0.866 -3.257,1.214 -4.894,1.146 -1.108,-0.048 -2.205,-0.319 -3.21,-0.791 -3.909,-1.848 -5.45,-6.312 -5.008,-10.017 0.446,-3.699 7.691,-41.134 9.608,-48.145 1.915,-7.003 6.662,-11.545 15.292,-9.379 8.632,2.16 14.185,5.133 19.12,10.327 0.914,0.969 1.79,1.963 2.548,3.05 1.063,1.53 1.985,3.099 2.405,4.93 0.332,1.41 0.374,2.875 0.025,4.285 -0.145,0.583 -0.279,1.166 -0.483,1.732 -0.18,0.491 -0.535,0.995 -0.595,1.517 -0.025,0.332 0.271,0.435 0.497,0.612 1.678,1.276 3.352,2.556 5.021,3.83 0.017,0.013 0.027,0.023 0.04,0.031 0.5,0.413 0.846,0.946 1.006,1.571 0.108,0.417 0.291,0.474 0.706,0.318 1.664,-0.63 2.536,-2.477 2.978,-4.082 0.507,-1.838 0.818,-3.739 0.96,-5.639 0.139,-1.953 0.169,-3.932 -0.154,-5.877 z"
       id="path3763"
       inkscape:connector-curvature="0"
       style="fill:#ffffff;fill-opacity:1" /><path
       d="m 48.088,74.232 c -0.407,0.674 -0.117,0.987 -0.554,1.732 -0.443,0.747 -3.489,4.617 -4.234,5.829 -0.745,1.212 -0.705,1.672 -0.441,2.049 0.25,0.382 3.646,2.767 4.575,3.374 0.928,0.618 1.526,0.812 1.949,0.666 0.424,-0.151 3.585,-4.653 4.103,-5.195 0.52,-0.538 1.64,-2.177 2.336,-2.376 0.702,-0.188 0.946,-0.332 1.287,-0.689 0.132,-0.144 0.444,-0.609 0.777,-1.125 l -8.407,-6.21 c -0.532,0.715 -1.169,1.577 -1.391,1.945 z m 0.974,9.356 c -0.268,0.771 -1.101,1.185 -1.87,0.92 -0.771,-0.262 -1.178,-1.096 -0.918,-1.868 0.262,-0.769 1.098,-1.178 1.869,-0.914 0.766,0.26 1.174,1.093 0.919,1.862 z"
       id="path3765"
       inkscape:connector-curvature="0"
       style="fill:#ffffff;fill-opacity:1" /></g></svg>